<svg version="1.0" xmlns="http://www.w3.org/2000/svg" width="666.667" height="666.667" viewBox="0 0 500 500"><path d="M84.6 54c-1 .4-.7 2.5 1.6 9.5 1.6 4.9 3 9.4 3.2 10 .1.5 3.8 11.8 8.1 25.1l7.8 24.1 3.6-.8c3.6-.7 5.9-1.2 13.6-2.4 2.2-.3 6.5-1 9.5-1.5s8.4-1.2 12-1.5c3.6-.3 7.2-.7 8-1 2.1-.6 27.3-1.8 34.2-1.6l5.7.1-1.9-6.3c-1-3.4-3.3-10.7-5-16.2-3.3-10.3-5.3-16.6-5.5-17.5-1.3-4.8-6-18.7-6.6-19.4-.8-1-85.9-1.5-88.3-.6zM352 55c-.4.8-2.6 7.1-4.8 14-14.6 45.1-19.2 60.2-18.7 61 .4.6 1.2 1 1.8 1 1.6 0 23.1 7 34.7 11.3 10.3 3.8 21 8.4 33.2 14.1 4.2 2 8.1 3.6 8.5 3.6.4 0 8.7-23.9 18.3-53 16-48.4 17.4-53 15.5-53.1-1.1 0-21.3-.1-44.8-.2-37.2-.2-43 0-43.7 1.3zm-163.3 86.6c-.1.1-6.7.5-14.7.8-8 .4-16.1.9-18 1-7.7.7-20.3 2.3-25 3.1-1.4.3-4.3.7-6.5 1.1-2.2.3-6.8 1.2-10.1 1.9-3.4.8-7.3 1.6-8.5 1.9-12.8 2.5-37 11.1-51.2 18.3-14.2 7-22.2 12.8-33.2 23.8-8.3 8.3-12.6 14.2-16.4 22.8C.4 226.7-.3 230.8.2 244.2c.4 10.2 1 13.6 3.3 19.8 7.2 19.5 24.4 41.1 47.5 59.5 4.1 3.3 7.7 6.2 8 6.5 1.5 1.6 22.9 15.5 31.5 20.5 9.2 5.3 38.9 20.3 46.1 23.3 10.1 4.1 19.4 7 19.4 6.1 0-1.3-6.3-7.6-18-17.9-18.6-16.5-30.2-30.8-37.6-46.3-13.7-29.1-6.6-56.6 20.6-80.2 13.4-11.6 42.7-24.4 64.1-28 8.1-1.4 14.6-2.5 17.4-3 14.2-2.7 67.6-2.7 83.5-.1 1.4.3 4.8.7 7.5 1 2.8.3 6.1.8 7.5 1 1.4.2 4.5.7 7 1 5.9.9 10.9 1.6 14 2.2 1.4.2 5.3.9 8.7 1.4 3.4.6 6.8 1.2 7.5 1.5.7.2 2.9.7 4.8 1 3.3.5 23.3 4.9 27.3 6 .9.3 2.5.7 3.5.9 14.9 3.6 50.8 15.4 69.2 22.8 18.3 7.4 41.5 18.2 44.1 20.5 2.7 2.3 11.7 5.4 12.4 4.2 1.2-1.8-4.5-9-15.4-20-26.1-26-66.1-52-108.8-70.7-12.3-5.4-34.3-13.8-38.3-14.7-.8-.2-5.5-1.6-10.3-3-15.1-4.4-42-10.2-56.2-11.9-4.3-.6-10.5-1.5-14.5-2.2-1.4-.2-5.6-.6-9.5-.9-3.8-.4-8.3-.8-10-1-6-.7-47.2-2.3-47.8-1.9z"/><path d="M210 231.1c-11.7 1.7-13.7 2.1-17 2.9-1.9.5-4.8 1.2-6.5 1.5-3.3.7-4.2.9-6.5 1.7-.8.3-5.1 1.8-9.5 3.4-11 3.8-22.5 9.3-22.5 10.7 0 1 10.6 34.8 14.9 47.7 1.1 3 5.6 17 10.1 31s9.5 29.3 11 34c1.5 4.7 6.5 20 11 34s10.3 31.8 12.8 39.5l4.7 14h98.8l2.4-7c19-56 63.8-193.2 63.3-193.8-.6-.7-15.1-4.7-22.5-6.2-1.1-.2-6.5-1.3-12-2.5-5.5-1.1-11.3-2.3-13-2.6-1.6-.3-7.9-1.4-14-2.5-6-1.1-13.2-2.2-16-2.5l-5-.5-1.6 4.8c-1 2.6-3.6 10.9-5.9 18.3-3.9 12.5-11.8 37.1-20.8 64.7-2 6.2-3.9 11.3-4.3 11.3-.4 0-1-1.2-1.3-2.8-.4-1.5-2.3-7.7-4.2-13.7-4.6-14.7-12.6-39.7-16.6-52-1.7-5.5-3.3-10.5-3.4-11-.1-.6-1.8-6.1-3.9-12.3l-3.6-11.2-7.2.2c-4 .2-9.2.6-11.7.9z"/></svg>