<?xml version="1.0" encoding="utf-8"?>
<!-- Generator: Adobe Illustrator 25.0.1, SVG Export Plug-In . SVG Version: 6.00 Build 0)  -->
<svg version="1.1" baseProfile="tiny" id="Vulkan" xmlns="http://www.w3.org/2000/svg" xmlns:xlink="http://www.w3.org/1999/xlink"
	 x="0px" y="0px" viewBox="0 0 572.9 164" overflow="visible" xml:space="preserve">
<g>
	<path fill="#FFFFFF" d="M90.5,133.3H111c4.4,0,7.8,1.2,10.1,3.5c2.3,2.3,3.4,5.9,3.4,10.7c0,2.8-0.4,5.1-1.2,6.9
		c-0.8,1.8-1.8,3.3-3.2,4.3c-1.3,1.1-2.9,1.8-4.7,2.3s-3.7,0.7-5.7,0.7H90.5V133.3z M100,155.2h7.9c1.3,0,2.5-0.2,3.4-0.7
		c0.9-0.4,1.6-1,2.1-1.8s0.9-1.6,1.1-2.5c0.2-0.9,0.3-1.9,0.3-2.9c0-2.6-0.6-4.6-1.9-5.9c-1.3-1.3-3.2-1.9-5.7-1.9H100V155.2z"/>
	<path fill="#FFFFFF" d="M129.8,147.4c0-2.9,0.5-5.4,1.5-7.3c1-1.9,2.3-3.5,4-4.6c1.7-1.2,3.6-2,5.9-2.4c2.2-0.5,4.6-0.7,7.1-0.7
		c2.5,0,4.8,0.2,7.1,0.7c2.2,0.5,4.2,1.3,5.9,2.4s3,2.7,4,4.6c1,1.9,1.5,4.4,1.5,7.3s-0.5,5.4-1.5,7.3c-1,1.9-2.3,3.5-4,4.6
		s-3.7,2-5.9,2.4c-2.2,0.5-4.6,0.7-7.1,0.7c-2.5,0-4.9-0.2-7.1-0.7c-2.2-0.5-4.2-1.3-5.9-2.4c-1.7-1.2-3-2.7-4-4.6
		C130.3,152.8,129.8,150.4,129.8,147.4z M139.8,147.4c0,1.5,0.2,2.8,0.6,3.9s1,2,1.7,2.7s1.6,1.2,2.7,1.6s2.2,0.5,3.5,0.5
		s2.4-0.2,3.5-0.5s1.9-0.9,2.7-1.6s1.3-1.6,1.7-2.7c0.4-1.1,0.6-2.4,0.6-3.9c0-3-0.8-5.2-2.3-6.6c-1.5-1.4-3.6-2.1-6.1-2.1
		c-1.3,0-2.4,0.2-3.5,0.5c-1,0.4-1.9,0.9-2.7,1.6c-0.7,0.7-1.3,1.6-1.7,2.7S139.8,146,139.8,147.4z"/>
	<path fill="#FFFFFF" d="M207.8,150.7c-0.3,1.5-0.8,3-1.4,4.4c-0.6,1.4-1.6,2.7-3,3.8c-1.3,1.1-3.1,2-5.3,2.6c-2.2,0.6-5,1-8.3,1
		c-6,0-10.5-1.3-13.4-3.8c-2.9-2.6-4.4-6.3-4.4-11.2c0-2.4,0.3-4.5,1.1-6.3c0.7-1.9,1.8-3.4,3.2-4.7c1.5-1.3,3.3-2.3,5.6-3
		s4.9-1,8-1c2.2,0,4.2,0.2,6.1,0.5c1.9,0.3,3.7,0.9,5.2,1.7c1.6,0.9,2.9,2.1,4,3.6c1.1,1.5,1.9,3.5,2.5,6h-10.5
		c-0.1-0.5-0.3-1.1-0.6-1.7c-0.3-0.6-0.7-1.2-1.2-1.8s-1.2-1-2.1-1.4c-0.9-0.4-2-0.6-3.3-0.6c-1.5,0-2.7,0.2-3.7,0.7
		s-1.8,1.1-2.4,1.9c-0.6,0.8-1,1.7-1.3,2.8c-0.3,1.1-0.4,2.2-0.4,3.3c0,1.2,0.1,2.3,0.4,3.3c0.3,1.1,0.7,2,1.3,2.8
		c0.6,0.8,1.4,1.4,2.4,1.9c1,0.5,2.3,0.7,3.8,0.7c2.1,0,3.8-0.5,5.1-1.5c1.2-1,2-2.3,2.3-4H207.8z"/>
	<path fill="#FFFFFF" d="M213.9,133.3h9.4V150c0,2.3,0.5,3.9,1.6,4.8c1.1,0.9,2.7,1.3,4.9,1.3c2.2,0,3.8-0.4,4.9-1.3
		c1.1-0.9,1.6-2.5,1.6-4.8v-16.8h9.4v18.3c0,2-0.4,3.6-1.1,5c-0.7,1.4-1.8,2.5-3.1,3.4c-1.4,0.9-3,1.5-5,1.9c-2,0.4-4.2,0.6-6.7,0.6
		s-4.8-0.2-6.7-0.6c-2-0.4-3.6-1-5-1.9c-1.4-0.9-2.4-2-3.1-3.4c-0.7-1.4-1.1-3-1.1-5V133.3z"/>
	<path fill="#FFFFFF" d="M253.7,133.3h13.8l6.5,18.7h0.1l6.5-18.7h13.8v28.3h-8.9v-21.2h-0.1l-7.5,21.2h-7.8l-7.5-21.2h-0.1v21.2
		h-8.9V133.3z"/>
	<path fill="#FFFFFF" d="M302.6,133.3h28.4v6.1H312v5.1h17.7v5.9H312v5.1h18.9v6.1h-28.4V133.3z"/>
	<path fill="#FFFFFF" d="M337.5,133.3h10.9l13.1,17.7h0.1v-17.7h9.1v28.3h-10.4l-13.6-17.9h-0.1v17.9h-9.1V133.3z"/>
	<path fill="#FFFFFF" d="M376.1,133.3h30.2v6.3h-10.4v22h-9.4v-22h-10.4V133.3z"/>
	<path fill="#FFFFFF" d="M417.9,133.3h11.5l12.2,28.3h-10.1l-1.7-4.6h-12.4l-1.7,4.6h-10.1L417.9,133.3z M423.6,140.4L423.6,140.4
		l-4,10.7h7.9L423.6,140.4z"/>
	<path fill="#FFFFFF" d="M440.8,133.3h30.2v6.3h-10.4v22h-9.4v-22h-10.4V133.3z"/>
	<path fill="#FFFFFF" d="M476.6,133.3h9.4v28.3h-9.4V133.3z"/>
	<path fill="#FFFFFF" d="M493,147.4c0-2.9,0.5-5.4,1.5-7.3c1-1.9,2.3-3.5,4-4.6c1.7-1.2,3.6-2,5.9-2.4c2.2-0.5,4.6-0.7,7.1-0.7
		c2.5,0,4.8,0.2,7.1,0.7c2.2,0.5,4.2,1.3,5.9,2.4s3,2.7,4,4.6c1,1.9,1.5,4.4,1.5,7.3s-0.5,5.4-1.5,7.3c-1,1.9-2.3,3.5-4,4.6
		s-3.7,2-5.9,2.4c-2.2,0.5-4.6,0.7-7.1,0.7c-2.5,0-4.9-0.2-7.1-0.7c-2.2-0.5-4.2-1.3-5.9-2.4c-1.7-1.2-3-2.7-4-4.6
		C493.4,152.8,493,150.4,493,147.4z M503,147.4c0,1.5,0.2,2.8,0.6,3.9s1,2,1.7,2.7s1.6,1.2,2.7,1.6s2.2,0.5,3.5,0.5s2.4-0.2,3.5-0.5
		s1.9-0.9,2.7-1.6s1.3-1.6,1.7-2.7c0.4-1.1,0.6-2.4,0.6-3.9c0-3-0.8-5.2-2.3-6.6c-1.5-1.4-3.6-2.1-6.1-2.1c-1.3,0-2.4,0.2-3.5,0.5
		c-1,0.4-1.9,0.9-2.7,1.6c-0.7,0.7-1.3,1.6-1.7,2.7S503,146,503,147.4z"/>
	<path fill="#FFFFFF" d="M536.7,133.3h10.9l13.1,17.7h0.1v-17.7h9.1v28.3h-10.4l-13.6-17.9h-0.1v17.9h-9.1V133.3z"/>
</g>
<g>
	<g>
		<path fill="#FFFFFF" d="M241.3,115h-15.6c0,0,0-38.1,0-49.9c5,2.8,11.6,7.9,15.6,12.8V115z"/>
		<g>
			<path fill="#FFFFFF" d="M109.7,115H90.3L64.9,36.6h17.7l17.5,55.1h0.2L118,36.6h17.8L109.7,115z"/>
			<path fill="#FFFFFF" d="M188.1,115h-14.8v-7.9h-0.3c-2,3.3-4.5,5.7-7.7,7.2c-3.2,1.5-6.4,2.2-9.6,2.2c-4.2,0-7.6-0.5-10.3-1.7
				c-2.7-1.1-4.8-2.7-6.3-4.7c-1.5-2-2.6-4.5-3.2-7.3c-0.6-2.9-0.9-6.1-0.9-9.6V58.2h15.6v32.1c0,4.7,0.7,8.2,2.2,10.5
				c1.5,2.3,4.1,3.5,7.8,3.5c4.2,0,7.3-1.3,9.2-3.8s2.8-6.7,2.8-12.5V58.2h15.6L188.1,115L188.1,115z"/>
		</g>
		<polygon fill="#FFFFFF" points="243.9,80.9 243.9,78.7 263.6,58.2 282,58.2 260.6,79.1 284.4,115 265.5,115 		"/>
		<path fill="#FFFFFF" d="M287.3,75.7c0.2-3.7,1.2-6.7,2.8-9.1c1.6-2.4,3.7-4.3,6.2-5.8c2.5-1.5,5.3-2.5,8.4-3.1s6.2-0.9,9.4-0.9
			c2.8,0,5.8,0.2,8.7,0.6c2.9,0.4,5.6,1.2,8,2.3c2.4,1.2,4.4,2.8,5.9,4.9c1.5,2.1,2.3,4.8,2.3,8.3v29.6c0,2.6,0.2,5,0.4,7.3
			c0.3,2.3,0.8,4.1,1.5,5.3h-15.8c-0.3-0.9-0.5-1.8-0.7-2.7c-0.2-0.9-0.3-1.8-0.4-2.8c-2.5,2.6-5.4,4.3-8.8,5.4
			c-3.4,1-6.8,1.5-10.3,1.5c-2.7,0-5.2-0.3-7.6-1s-4.4-1.7-6.2-3.1s-3.2-3.2-4.1-5.3c-1-2.1-1.5-4.7-1.5-7.6c0-3.2,0.6-5.9,1.7-8
			c1.2-2.1,2.6-3.8,4.4-5c1.8-1.2,3.8-2.2,6.2-2.8c2.3-0.6,4.6-1.1,7-1.5c2.3-0.3,4.7-0.7,6.9-0.9c2.3-0.2,4.3-0.5,6-1
			c1.8-0.4,3.2-1.1,4.2-1.9c1-0.8,1.5-2.1,1.4-3.7c0-1.7-0.3-3-0.8-4c-0.5-1-1.3-1.8-2.2-2.3c-0.9-0.5-2-0.9-3.2-1.1
			c-1.2-0.2-2.5-0.3-3.9-0.3c-3.1,0-5.5,0.7-7.3,2c-1.8,1.3-2.8,3.5-3.1,6.6L287.3,75.7L287.3,75.7z M323.3,87.2
			c-0.7,0.6-1.5,1-2.5,1.4c-1,0.3-2,0.6-3.2,0.8c-1.2,0.2-2.3,0.4-3.6,0.5c-1.2,0.2-2.5,0.3-3.7,0.5c-1.2,0.2-2.3,0.5-3.5,0.9
			c-1.2,0.4-2.1,0.8-3,1.5c-0.8,0.6-1.5,1.4-2,2.3c-0.5,1-0.8,2.2-0.8,3.6c0,1.4,0.3,2.6,0.8,3.5c0.5,1,1.2,1.7,2.1,2.3
			c0.9,0.5,1.9,0.9,3.1,1.2c1.2,0.2,2.4,0.3,3.6,0.3c3.1,0,5.5-0.5,7.2-1.5c1.7-1,2.9-2.3,3.7-3.7c0.8-1.4,1.3-2.9,1.5-4.3
			c0.2-1.5,0.3-2.7,0.3-3.5L323.3,87.2L323.3,87.2z"/>
		<path fill="#FFFFFF" d="M349,58.2h14.8v7.9h0.3c2-3.3,4.5-5.7,7.7-7.2s6.4-2.3,9.6-2.3c4.2,0,7.6,0.6,10.3,1.7
			c2.7,1.2,4.8,2.7,6.3,4.7c1.5,2,2.6,4.5,3.2,7.3c0.6,2.9,0.9,6.1,0.9,9.6V115h-15.6V82.9c0-4.7-0.7-8.2-2.2-10.5
			c-1.5-2.3-4.1-3.5-7.8-3.5c-4.3,0-7.3,1.3-9.2,3.8c-1.9,2.5-2.8,6.7-2.8,12.5V115H349L349,58.2L349,58.2z"/>
		<g>
			<path fill="#FFFFFF" d="M198.4,48.4V115H214V57C209,53.9,203.8,51.1,198.4,48.4z"/>
		</g>
		<path fill="#FFFFFF" d="M39.2,51.2c9-26.5,63.1-36.2,120.8-21.7c34.6,8.7,62.9,25.6,81.3,42.3c-8.3-22.1-49-53.7-104.9-64.5
			C73.2-4.9,10.8,5.9,3.1,33.9c-5.6,20.3,18.9,44,56.7,60.2C42.8,80.4,34.6,64.9,39.2,51.2z"/>
		<g>
			<path fill="#FFFFFF" d="M241.4,62.2V36.6h-15.6v7.8C232.4,50.3,237.7,56.3,241.4,62.2z"/>
		</g>
	</g>
	<g>
		<path fill="#FFFFFF" d="M430.1,106.7c0,4.7-3.7,8.4-8.5,8.4c-4.8,0-8.6-3.7-8.6-8.4c0-4.6,3.8-8.3,8.6-8.3
			C426.3,98.4,430.1,102.1,430.1,106.7z M415.1,106.7c0,3.7,2.7,6.7,6.5,6.7c3.7,0,6.3-2.9,6.3-6.6c0-3.7-2.7-6.7-6.4-6.7
			C417.8,100.1,415.1,103,415.1,106.7z M420.2,111.1h-1.9v-8.3c0.8-0.2,1.8-0.3,3.2-0.3c1.6,0,2.3,0.3,2.9,0.6
			c0.5,0.3,0.8,1,0.8,1.8c0,0.9-0.7,1.6-1.7,1.9v0.1c0.8,0.3,1.3,0.9,1.5,2c0.3,1.3,0.4,1.8,0.6,2.1h-2.1c-0.3-0.3-0.4-1.1-0.7-2
			c-0.2-0.9-0.7-1.3-1.7-1.3h-0.9V111.1L420.2,111.1z M420.3,106.3h0.9c1.1,0,1.9-0.3,1.9-1.2c0-0.8-0.5-1.3-1.8-1.3
			c-0.5,0-0.8,0-1.1,0.1V106.3L420.3,106.3z"/>
	</g>
</g>
</svg>
