<?xml version="1.0" standalone="no"?>
<!DOCTYPE svg PUBLIC "-//W3C//DTD SVG 20010904//EN"
 "http://www.w3.org/TR/2001/REC-SVG-20010904/DTD/svg10.dtd">
<svg version="1.0" xmlns="http://www.w3.org/2000/svg"
 width="500.000000pt" height="500.000000pt" viewBox="0 0 500.000000 500.000000"
 preserveAspectRatio="xMidYMid meet">
<metadata>
Created by potrace 1.14, written by Peter Selinger 2001-2017
</metadata>
<g transform="translate(0.000000,500.000000) scale(0.100000,-0.100000)"
fill="#000000" stroke="none">
<path d="M846 4460 c-10 -4 -7 -25 16 -95 16 -49 30 -94 32 -100 1 -5 38 -118
81 -251 l78 -241 36 8 c36 7 59 12 136 24 22 3 65 10 95 15 30 5 84 12 120 15
36 3 72 7 80 10 21 6 273 18 342 16 l57 -1 -19 63 c-10 34 -33 107 -50 162
-33 103 -53 166 -55 175 -13 48 -60 187 -66 194 -8 10 -859 15 -883 6z"/>
<path d="M3520 4450 c-4 -8 -26 -71 -48 -140 -146 -451 -192 -602 -187 -610 4
-6 12 -10 18 -10 16 0 231 -70 347 -113 103 -38 210 -84 332 -141 42 -20 81
-36 85 -36 4 0 87 239 183 530 160 484 174 530 155 531 -11 0 -213 1 -448 2
-372 2 -430 0 -437 -13z"/>
<path d="M1887 3584 c-1 -1 -67 -5 -147 -8 -80 -4 -161 -9 -180 -10 -77 -7
-203 -23 -250 -31 -14 -3 -43 -7 -65 -11 -22 -3 -68 -12 -101 -19 -34 -8 -73
-16 -85 -19 -128 -25 -370 -111 -512 -183 -142 -70 -222 -128 -332 -238 -83
-83 -126 -142 -164 -228 -47 -104 -54 -145 -49 -279 4 -102 10 -136 33 -198
72 -195 244 -411 475 -595 41 -33 77 -62 80 -65 15 -16 229 -155 315 -205 92
-53 389 -203 461 -233 101 -41 194 -70 194 -61 0 13 -63 76 -180 179 -186 165
-302 308 -376 463 -137 291 -66 566 206 802 134 116 427 244 641 280 81 14
146 25 174 30 142 27 676 27 835 1 14 -3 48 -7 75 -10 28 -3 61 -8 75 -10 14
-2 45 -7 70 -10 59 -9 109 -16 140 -22 14 -2 53 -9 87 -14 34 -6 68 -12 75
-15 7 -2 29 -7 48 -10 33 -5 233 -49 273 -60 9 -3 25 -7 35 -9 149 -36 508
-154 692 -228 183 -74 415 -182 441 -205 27 -23 117 -54 124 -42 12 18 -45 90
-154 200 -261 260 -661 520 -1088 707 -123 54 -343 138 -383 147 -8 2 -55 16
-103 30 -151 44 -420 102 -562 119 -43 6 -105 15 -145 22 -14 2 -56 6 -95 9
-38 4 -83 8 -100 10 -60 7 -472 23 -478 19z"/>
<path d="M2100 2689 c-117 -17 -137 -21 -170 -29 -19 -5 -48 -12 -65 -15 -33
-7 -42 -9 -65 -17 -8 -3 -51 -18 -95 -34 -110 -38 -225 -93 -225 -107 0 -10
106 -348 149 -477 11 -30 56 -170 101 -310 45 -140 95 -293 110 -340 15 -47
65 -200 110 -340 45 -140 103 -318 128 -395 l47 -140 494 0 494 0 24 70 c190
560 638 1932 633 1938 -6 7 -151 47 -225 62 -11 2 -65 13 -120 25 -55 11 -113
23 -130 26 -16 3 -79 14 -140 25 -60 11 -132 22 -160 25 l-50 5 -16 -48 c-10
-26 -36 -109 -59 -183 -39 -125 -118 -371 -208 -647 -20 -62 -39 -113 -43
-113 -4 0 -10 12 -13 28 -4 15 -23 77 -42 137 -46 147 -126 397 -166 520 -17
55 -33 105 -34 110 -1 6 -18 61 -39 123 l-36 112 -72 -2 c-40 -2 -92 -6 -117
-9z"/>
</g>
</svg>
